<?xml version="1.0" encoding="UTF-8" standalone="no"?>
<svg
   xmlns:dc="http://purl.org/dc/elements/1.1/"
   xmlns:cc="http://creativecommons.org/ns#"
   xmlns:rdf="http://www.w3.org/1999/02/22-rdf-syntax-ns#"
   xmlns:svg="http://www.w3.org/2000/svg"
   xmlns="http://www.w3.org/2000/svg"
   xmlns:sodipodi="http://sodipodi.sourceforge.net/DTD/sodipodi-0.dtd"
   xmlns:inkscape="http://www.inkscape.org/namespaces/inkscape"
   viewBox="0 0 612 612"
   id="svg2"
   version="1.1"
   inkscape:version="0.91 r13725"
   sodipodi:docname="nmq.svg">
  <metadata
     id="metadata19">
    <rdf:RDF>
      <cc:Work
         rdf:about="">
        <dc:format>image/svg+xml</dc:format>
        <dc:type
           rdf:resource="http://purl.org/dc/dcmitype/StillImage" />
        <dc:title></dc:title>
      </cc:Work>
    </rdf:RDF>
  </metadata>
  <defs
     id="defs17" />
  <sodipodi:namedview
     pagecolor="#ffffff"
     bordercolor="#666666"
     borderopacity="1"
     objecttolerance="10"
     gridtolerance="10"
     guidetolerance="10"
     inkscape:pageopacity="0"
     inkscape:pageshadow="2"
     inkscape:window-width="1920"
     inkscape:window-height="1016"
     id="namedview15"
     showgrid="false"
     inkscape:zoom="0.38562092"
     inkscape:cx="755.92373"
     inkscape:cy="306"
     inkscape:window-x="0"
     inkscape:window-y="27"
     inkscape:window-maximized="1"
     inkscape:current-layer="svg2" />
  <g
     id="g4">
    <title
       id="title6">background</title>
    <rect
       fill="none"
       id="canvas_background"
       height="744"
       width="1662"
       y="-1"
       x="-1" />
  </g>
  <g
     id="g4152">
    <path
       id="color"
       d="m 612,510 c 0,56.1 -45.9,102 -102,102 l -408,0 C 45.9,612 0,566.1 0,510 L 0,102 C 0,45.9 45.9,0 102,0 l 408,0 c 56.1,0 102,45.9 102,102 l 0,408 z"
       inkscape:connector-curvature="0"
       style="fill:#ff5e52;fill-opacity:1" />
    <g
       id="font"
       style="font-style:normal;font-variant:normal;font-weight:normal;font-stretch:normal;font-size:422.41247559px;line-height:125%;font-family:'胡晓波美心常规体';-inkscape-font-specification:'胡晓波美心常规体, Normal';text-align:start;writing-mode:lr-tb;text-anchor:start;fill:#ffffff;stroke-width:0"
       transform="scale(0.99879935,1.0012021)">
      <path
         id="path4150"
         style="font-style:normal;font-variant:normal;font-weight:normal;font-stretch:normal;font-size:422.41247559px;line-height:125%;font-family:'胡晓波美心常规体';-inkscape-font-specification:'胡晓波美心常规体, Normal';text-align:start;writing-mode:lr-tb;text-anchor:start;fill:#ffffff;stroke-width:0"
         d="m 141.33996,116.19931 331.17139,0 q 10.98272,0.42241 10.98272,3.3793 l 0,309.20593 q 0,44.77572 -36.32747,56.60327 -26.18958,3.3793 -46.46538,3.3793 l -6.7586,0 -124.18926,-1.68965 -120.80997,0 q -9.29308,-1.26724 -9.29308,-4.22412 l 0,-364.96438 1.68965,-1.68965 z m 16.05168,8.44825 0,354.82648 258.51643,0 q 40.97401,0 49.84468,-40.5516 l 0.84482,-9.29308 0,-304.9818 -309.20593,0 z m 146.15472,32.10334 5.06894,0 q 10.98273,0 10.98273,9.29308 l 0,44.77572 51.53432,0 q 12.67238,-47.3102 15.20685,-47.3102 l 3.3793,0 q 11.82755,1.26724 11.82755,5.06895 l 0,0.84483 -12.67237,41.39642 28.72404,0 q 7.60343,0 10.98273,5.91378 l 0,0.84482 -2.53448,2.53448 -107.29277,-0.84483 0,0.84483 q 0,20.27579 -13.51719,44.77572 l 130.10304,0 2.53447,2.53447 q 0,2.95689 -9.29307,5.06895 l -82.79285,0 q 44.77573,27.0344 91.2411,66.74117 l 2.53447,3.3793 0,0.84483 q 0,2.53447 -12.67237,4.22412 -3.3793,0 -21.12063,-16.8965 -70.96529,-54.06879 -84.48249,-57.44809 l -20.2758,0 q -29.56887,36.32747 -55.75845,48.15502 l 0,0.84483 125.0341,0 q 5.91377,0 5.91377,5.91377 l 0,11.82755 q 0,37.1723 -21.96545,44.77572 -14.36202,4.22413 -29.56887,4.22413 l -10.1379,0 q -5.91378,0 -6.7586,-2.53448 l 0,-0.84482 q 2.11206,-4.22413 6.7586,-4.22413 l 10.98272,0 q 24.49993,0 31.25853,-18.58615 l 1.68965,-21.12062 0,-11.82755 -103.06865,0 0,31.25852 -0.84482,38.01713 q 0,18.58614 16.8965,28.72404 7.60342,3.3793 16.05167,3.3793 l 86.17215,0 q 19.85338,0 25.34474,-20.2758 2.11207,-22.81027 5.06895,-22.81027 l 5.06895,-0.84482 6.7586,0 2.53448,2.53447 0,4.22413 q 0,36.74988 -39.70677,43.93089 l -10.1379,0.84483 -82.79285,0 q -38.01712,0 -48.15502,-27.87923 l -1.68965,-8.44824 0.84482,-14.36203 0,-61.67222 q -25.76716,13.93961 -45.62054,19.43097 -13.5172,-2.95688 -13.5172,-5.91377 2.11206,-2.53448 30.4137,-12.67238 38.01712,-17.31891 68.43082,-48.15502 l 4.22412,-5.91377 0,-0.84483 -95.46522,0 q -4.22412,0 -8.44825,-4.22412 l 0,-2.53448 4.22413,-0.84482 106.44794,0 q 13.5172,-23.23269 13.5172,-44.77572 l 0,-0.84483 -103.91347,0 q -7.60342,0 -7.60342,-6.7586 l 5.06895,-1.68965 43.93089,0 0,-0.84482 -16.05167,-43.08608 q 4.22412,-2.53447 12.67237,-3.3793 5.06895,0 10.98273,21.12063 10.56031,25.76716 11.82755,26.18957 l 43.9309,0 0,-52.37915 1.68965,-1.68965 z" />
    </g>
  </g>
</svg>
